<svg width="40" height="40" viewBox="0 0 40 40" fill="none" xmlns="http://www.w3.org/2000/svg">
<g clip-path="url(#clip0)">
<path d="M25.4976 12.2968V27.7038L34.2347 29.8314V10.1692L25.4976 12.2968Z" fill="#FFBF1B"/>
<path d="M27.061 13.8602L34.2344 10.1689L19.9998 0L18.436 10.3796L27.061 13.8602Z" fill="#FFDA48"/>
<path d="M18.436 29.6205L19.9998 40.0001L34.2344 29.8312L27.061 26.1399L18.436 29.6205Z" fill="#FFDA48"/>
<path d="M19.9998 8.81592L18.436 20.0001L19.9998 31.1842L27.061 26.1398V13.8603L19.9998 8.81592Z" fill="#FC9F21"/>
<path d="M11.375 12.2965V27.7036L19.9999 31.1842V8.81592L11.375 12.2965Z" fill="#FFDA48"/>
<path d="M12.9386 26.1398L8.95217 25.8594L5.76514 29.8311L19.9998 40V31.1841L12.9386 26.1398Z" fill="#FC9F21"/>
<path d="M19.9998 8.81586V0L5.76514 10.1689L8.95217 14.2448L12.9386 13.8602L19.9998 8.81586Z" fill="#FC9F21"/>
<path d="M12.9386 13.8605L5.76514 10.1692V29.8314L12.9386 26.14V13.8605Z" fill="#FFBF1B"/>
</g>
<defs>
<clipPath id="clip0">
<rect width="40" height="40" fill="white"/>
</clipPath>
</defs>
</svg>
